PathFileType	3	(X/Y/Z)	C:\Users\koon_\Desktop\
DataRate	CameraRate	NumFrames	NumMarkers	Units	OrigDataRate	OrigDataStartFrame	OrigNumFrames
100.0	100.0	12	27	mm	100.0	2000	3999	
Frame#	Time	get:LFHD			get:RFHD			get:LBHD			get:RBHD			get:C7			get:T10			get:CLAV			get:STRN			get:RBAK			get:LSHO			get:LUPA			get:LELB			get:LFRA			get:LWRA			get:LWRB			get:LFIN			get:RSHO			get:RUPA			get:RELB			get:RFRA			get:RWRA			get:RWRB			get:RFIN			get:LASI			get:RASI			get:LPSI			get:RPSI			
		X1	Y1	Z1	X2	Y2	Z2	X3	Y3	Z3	X4	Y4	Z4	X5	Y5	Z5	X6	Y6	Z6	X7	Y7	Z7	X8	Y8	Z8	X9	Y9	Z9	X10	Y10	Z10	X11	Y11	Z11	X12	Y12	Z12	X13	Y13	Z13	X14	Y14	Z14	X15	Y15	Z15	X16	Y16	Z16	X17	Y17	Z17	X18	Y18	Z18	X19	Y19	Z19	X20	Y20	Z20	X21	Y21	Z21	X22	Y22	Z22	X23	Y23	Z23	X24	Y24	Z24	X25	Y25	Z25	X26	Y26	Z26	X27	Y27	Z27	
2000	19.99	-35.75687	1576.5771	-37.734146	-70.243599	1561.2271	-192.11157	84.689232	1565.5513	-70.33075	72.709549	1562.8604	-197.93213	73.929626	1384.8035	-189.93242	79.254784	1133.5986	-249.65474	-63.217819	1297.0043	-69.186501	-71.215897	1108.7241	-48.586819	29.366636	1323.037	-277.57831	91.652863	1371.5245	-19.319506	65.337166	1270.7863	69.700104	-29.47768	1138.5225	134.66734	-111.18082	1229.8539	95.162506	-193.1501	1273.6735	56.092422	-220.10085	1245.5299	113.22647	-284.92471	1313.8234	90.612129	-92.034859	1381.2086	-237.2356	-216.18208	1221.4913	-324.6297	-240.87904	1119.1064	-360.9411	-269.27847	1204.8065	-316.08447	-352.53473	1289.6973	-219.54167	-401.61954	1250.2531	-251.23924	-424.4649	1332.1228	-231.0562	88.975769	925.13708	-43.925472	-166.52538	925.44177	-155.54738	92.690567	967.11237	-258.44949	-9.6512871	956.17719	-301.91351
2001	20	-36.588825	1576.5809	-38.329197	-70.379532	1561.2872	-192.69458	84.027306	1565.6611	-70.426727	72.68264	1563.094	-198.03841	74.246964	1384.8431	-189.65843	79.989563	1133.6835	-249.28426	-64.227448	1297.2899	-70.189697	-72.312782	1108.965	-49.085571	30.424114	1322.9888	-277.72974	89.599808	1372.0077	-19.075006	61.281898	1272.5422	71.682861	-36.18261	1141.9879	134.6321	-118.89005	1231.9684	93.592018	-201.0416	1274.0845	53.195835	-228.35143	1245.6711	109.85648	-293.67252	1313.37	86.298378	-90.985207	1381.6932	-239.0554	-216.01001	1223.4774	-327.22098	-241.61549	1121.2831	-363.5293	-271.77023	1206.6309	-318.78476	-357.54068	1290.8329	-223.74278	-405.59821	1251.1233	-256.87064	-429.91962	1332.186	-236.31004	88.163971	925.22986	-43.768211	-166.71008	925.6084	-156.80576	93.068306	967.2251	-258.16827	-9.0563936	956.32947	-302.17422
2002	20.01	-37.394703	1576.5991	-38.951969	-70.732689	1561.7794	-194.33826	83.420868	1565.7905	-70.459465	72.607346	1563.3251	-198.14096	74.546799	1384.8818	-189.42166	80.655579	1133.793	-248.95868	-65.27491	1297.8042	-70.765022	-73.286224	1109.3322	-49.278324	31.496845	1322.9309	-277.80603	87.644745	1372.4553	-18.969759	57.180035	1274.286	71.817482	-42.914162	1145.4404	134.36769	-126.77216	1233.798	92.001549	-208.81549	1274.5999	50.489616	-236.76558	1246.1007	106.95697	-302.42093	1312.657	81.960243	-90.10305	1381.787	-239.32033	-216.01596	1225.4935	-329.40695	-242.60361	1123.5367	-365.8631	-274.01266	1208.5891	-321.2746	-362.76099	1291.9636	-227.87372	-409.81979	1252.0653	-262.39456	-434.92181	1333.0879	-242.75566	87.249207	925.15668	-43.558651	-166.83002	925.71777	-157.98709	93.398659	967.3316	-257.90891	-8.45714	956.45618	-302.42584
2003	20.02	-38.239281	1576.6233	-39.54311	-70.506104	1561.5277	-194.39946	82.737823	1565.9375	-70.525322	72.591927	1563.5743	-198.25063	74.857132	1384.9122	-189.11128	81.303223	1133.9297	-248.58992	-66.1521	1297.8711	-72.090942	-74.449951	1109.4586	-50.03241	32.522938	1322.8698	-277.83545	85.679977	1372.9154	-18.682222	52.843765	1276.194	72.053764	-49.606339	1148.83	133.94946	-134.66557	1235.5085	90.18264	-216.62671	1274.976	47.893425	-245.10242	1245.7758	103.42937	-311.02866	1311.9343	77.730865	-89.096024	1382.1382	-240.42709	-216.09474	1227.6115	-331.20886	-243.75912	1125.8887	-367.94656	-276.39783	1210.7673	-323.85477	-368.22955	1293.1643	-231.98035	-414.13391	1253.0225	-267.77744	-440.89682	1333.4081	-248.08591	86.500587	925.2757	-43.440979	-167.01149	925.82068	-159.22137	93.771553	967.48218	-257.72626	-7.8606682	956.6106	-302.7363
2004	20.03	-39.032646	1576.6394	-40.099014	-70.596977	1561.2336	-194.17979	82.04538	1566.1147	-70.529564	72.527046	1563.8051	-198.31625	75.157822	1384.9523	-188.78523	81.938957	1134.0636	-248.26996	-67.086868	1298.2557	-72.97258	-75.5252	1109.7491	-50.481956	33.448006	1322.8285	-277.90591	83.734261	1373.4086	-18.626188	48.804256	1278.0955	71.99781	-56.216896	1152.1221	133.48582	-142.52022	1237.1826	88.201447	-224.65411	1275.1812	45.106396	-253.28514	1245.8673	100.35973	-319.62033	1311.3385	73.31308	-87.935844	1382.7336	-241.70717	-216.32333	1229.9319	-333.27258	-245.11063	1128.395	-369.90134	-278.995	1212.965	-325.9975	-373.85278	1294.4023	-235.91635	-418.63602	1254.002	-272.9173	-446.76385	1333.8597	-253.29718	85.760284	925.36212	-43.300053	-167.10257	925.93512	-160.3811	94.1138	967.61047	-257.54578	-7.3122501	956.76501	-302.97345
2005	20.04	-39.906067	1576.6465	-40.608803	-70.581223	1561.6174	-195.92076	81.360588	1566.2848	-70.583321	72.489426	1564.042	-198.40762	75.408974	1384.9834	-188.50259	82.513084	1134.1577	-247.98657	-67.97525	1298.5261	-73.90921	-76.555183	1109.9607	-50.958622	34.429993	1322.7675	-277.87103	81.833466	1373.8987	-18.711027	44.781757	1280.0376	72.174553	-62.852493	1155.4122	132.81087	-150.27449	1239.0095	86.4487	-232.57948	1275.4078	42.658112	-261.3533	1246.474	98.039574	-328.15857	1310.8005	68.827438	-86.962898	1383.2292	-242.9727	-216.62866	1232.2557	-334.61407	-246.5929	1131.1005	-371.64786	-281.71475	1215.3302	-328.0087	-379.62961	1295.7384	-239.6985	-423.2243	1255.0291	-277.89441	-452.83319	1334.5846	-258.4682	85.029251	925.53851	-43.597122	-167.2563	926.0033	-161.5135	94.437859	967.72278	-257.38428	-6.7283425	956.85876	-303.25674
2006	20.05	-40.692543	1576.7214	-41.013256	-70.760284	1561.2717	-195.51233	80.676796	1566.4918	-70.651825	72.405296	1564.2883	-198.48779	75.653061	1385.042	-188.24014	83.064896	1134.3009	-247.64163	-68.726601	1298.2456	-74.890656	-77.304596	1109.83	-51.473103	35.318691	1322.7506	-277.84064	80.052673	1374.3606	-18.634588	40.775501	1281.9369	71.963989	-69.386597	1158.8024	131.923	-157.90627	1240.8638	84.456039	-240.45535	1275.6702	40.317455	-269.18771	1246.8521	95.279152	-336.60559	1309.9727	64.423447	-86.035614	1383.5785	-243.74771	-217.09836	1234.7146	-336.02283	-248.28525	1133.9135	-373.09766	-284.69626	1217.8054	-329.73297	-385.4949	1297.1047	-243.31767	-427.81717	1256.1117	-282.66046	-458.92188	1335.0594	-263.29108	84.212326	925.56891	-43.569996	-167.35364	926.06439	-162.67082	94.776077	967.81097	-257.24786	-6.1815681	957.01459	-303.58401
2007	20.06	-41.454231	1576.7625	-41.44463	-70.846413	1561.3152	-196.23242	80.093742	1566.6838	-70.68129	72.252411	1564.486	-198.58215	75.831787	1385.1129	-187.97026	83.614624	1134.4484	-247.35805	-69.647995	1298.4366	-75.77224	-78.266022	1109.9839	-51.928696	36.12738	1322.7826	-277.89728	78.258636	1374.8387	-18.786011	36.755878	1283.9552	71.594788	-75.810928	1162.3441	130.65334	-165.40111	1242.8776	82.239609	-248.38159	1275.7565	37.775146	-276.88901	1247.2618	92.532883	-345.11557	1308.8362	60.21711	-84.907127	1383.7712	-244.0519	-217.52464	1237.2069	-337.11801	-250.0791	1136.8217	-374.45157	-287.83481	1220.395	-331.42618	-391.32187	1298.5116	-246.71556	-432.43558	1257.1907	-287.18259	-465.07849	1335.4888	-267.58441	83.239677	925.56604	-43.679123	-167.4366	926.15381	-163.82292	95.080368	967.88184	-257.10373	-5.5945845	957.15808	-303.92859
2008	20.07	-42.119984	1576.832	-41.832722	-71.026382	1561.3514	-196.82544	79.514587	1566.9288	-70.765739	72.132645	1564.7455	-198.67509	76.018181	1385.2172	-187.68744	84.091423	1134.5717	-247.03606	-70.431343	1298.4791	-76.773552	-79.189552	1110.076	-52.420017	36.895725	1322.8502	-277.8681	76.557022	1375.3228	-18.980364	32.911579	1285.9348	71.090759	-82.086029	1165.9332	129.41656	-172.81889	1244.8253	79.732063	-256.44498	1275.3715	33.442757	-284.41702	1247.3285	89.588379	-353.78851	1307.3831	56.32365	-84.283371	1384.278	-245.27252	-218.09795	1239.9597	-338.5723	-251.91585	1139.803	-375.59644	-291.03674	1223.072	-333.01834	-397.27466	1299.9883	-250.06607	-437.07693	1258.2234	-291.43082	-471.18463	1335.5951	-271.25232	82.668716	925.54004	-43.670765	-167.4763	926.2782	-164.9259	95.442307	967.95435	-256.91034	-5.0232816	957.27411	-304.18329
2009	20.08	-42.816128	1576.8865	-42.216797	-71.48938	1561.8774	-198.45453	78.728195	1567.0687	-70.972282	71.932648	1564.9689	-198.8495	76.175507	1385.3143	-187.39848	84.620499	1134.7169	-246.76459	-71.240723	1298.6588	-77.597763	-80.036476	1110.2136	-52.806286	37.612411	1322.9698	-277.86145	74.925667	1375.8032	-19.103493	29.329002	1287.9147	71.227135	-88.197235	1169.5787	127.94068	-180.46176	1246.8086	76.973396	-264.28586	1275.4164	30.665426	-291.8848	1247.1956	86.757912	-362.51297	1305.5543	52.766338	-83.253624	1384.4927	-245.3468	-218.68152	1242.5308	-339.48294	-253.88655	1142.8403	-376.62277	-294.24475	1225.8093	-334.40448	-403.24084	1301.5024	-253.35446	-441.78436	1259.2285	-295.51718	-477.47797	1336.2207	-275.36633	82.140236	925.53662	-43.580967	-167.54636	926.42542	-165.95096	95.750336	968.0531	-256.77103	-4.4762769	957.42297	-304.51089
2010	20.09	-43.439213	1576.8843	-42.616631	-71.422813	1561.4683	-197.89728	78.054604	1567.2159	-71.108887	71.691643	1565.2594	-198.96228	76.27726	1385.4478	-187.12202	85.126328	1134.881	-246.47304	-72.059792	1298.79	-78.519073	-80.907394	1110.3351	-53.245476	38.263241	1323.0549	-277.84781	73.339249	1376.2847	-19.215967	25.677452	1289.9012	70.71328	-94.136864	1173.2672	126.30653	-187.62239	1248.5333	74.537102	-272.15955	1275.4491	28.146933	-299.39459	1246.79	84.209305	-371.35837	1303.3623	49.58897	-82.756905	1384.9376	-246.27145	-219.35355	1245.191	-340.46661	-255.9467	1145.8075	-377.45584	-297.61902	1228.6573	-335.83353	-409.26462	1303.0352	-256.64813	-446.56528	1260.2588	-299.46536	-484.17603	1336.2953	-278.87827	81.614281	925.58246	-43.543346	-167.52124	926.54004	-167.02821	96.084282	968.17834	-256.60022	-3.88429	957.60364	-304.7688
2011	20.1	-44.04586	1576.8687	-42.969036	-71.706696	1561.4882	-198.36263	77.566986	1567.4376	-71.252167	71.431213	1565.5286	-199.13754	76.386993	1385.5773	-186.87543	85.628349	1135.0637	-246.18945	-72.793945	1298.912	-79.299667	-81.616203	1110.4449	-53.546131	38.876389	1323.1547	-277.86169	71.740013	1376.8195	-19.440485	22.101862	1291.8981	70.142204	-99.99234	1176.931	124.58945	-194.92207	1250.2262	72.336411	-279.94913	1275.4379	25.935154	-306.72946	1246.0663	81.916473	-379.95639	1300.9838	46.78944	-82.029472	1385.3322	-246.89952	-220.01837	1247.7626	-341.16391	-258.03949	1148.9752	-378.19974	-301.00864	1231.5688	-337.12943	-415.31653	1304.532	-259.80798	-451.29266	1261.2802	-303.23856	-490.53931	1336.9141	-282.9686	81.062973	925.61182	-43.556461	-167.54062	926.65833	-168.03011	96.483742	968.34717	-256.41568	-3.2948179	957.75568	-304.97928
